<?xml version="1.0" encoding="UTF-8"?>
<svg id="Layer_2" data-name="Layer 2" xmlns="http://www.w3.org/2000/svg" viewBox="0 0 215.64 32.4">
  <defs>
    <style>
      .cls-1 {
        isolation: isolate;
      }

      .cls-2 {
        fill: #e43436;
        stroke-width: 0px;
      }
    </style>
  </defs>
  <g id="Layer_2-2" data-name="Layer 2">
    <g class="cls-1">
      <path class="cls-2" d="m0,32.4V.04h26.1c1.14,0,2.19.29,3.15.86.96.57,1.72,1.33,2.29,2.27.57.95.85,1.99.85,3.13v8.73c0,1.14-.29,2.19-.85,3.15-.57.96-1.33,1.72-2.29,2.27-.96.56-2.01.83-3.15.83l-20.16.04v11.07H0ZM6.48,15.3h19.35c.15,0,.28-.04.4-.14.12-.09.18-.21.18-.36V6.53c0-.15-.06-.28-.18-.38-.12-.1-.25-.16-.4-.16H6.48c-.15,0-.28.05-.38.16s-.16.23-.16.38v8.28c0,.15.05.27.16.36.1.09.23.14.38.14Zm19.35,17.1l-9.77-11.66h7.79l8.46,9.99v1.67h-6.48Z"/>
      <path class="cls-2" d="m46.57,32.4V0h29.83v5.99h-23.85v7.2h19.17v6.03h-19.17v7.2h23.85v5.99h-29.83Z"/>
      <path class="cls-2" d="m90.4,32.4V0h26.1c1.14,0,2.19.29,3.15.86.96.57,1.73,1.33,2.29,2.27s.85,1.99.85,3.13v19.89c0,1.14-.29,2.18-.85,3.13-.57.95-1.33,1.7-2.29,2.27-.96.57-2.01.86-3.15.86h-26.1Zm6.44-5.99h19.4c.15,0,.28-.05.41-.16.12-.1.18-.23.18-.38V6.53c0-.15-.06-.28-.18-.38-.12-.1-.26-.16-.41-.16h-19.4c-.15,0-.28.05-.38.16s-.16.23-.16.38v19.35c0,.15.05.28.16.38.1.11.23.16.38.16Z"/>
      <path class="cls-2" d="m140.24,31.54c-.95-.57-1.7-1.33-2.27-2.27-.57-.94-.85-1.99-.85-3.13V0h5.94v25.88c0,.15.05.28.16.38.1.11.23.16.38.16h19.35c.15,0,.29-.05.41-.16.12-.1.18-.23.18-.38V0h5.98v26.15c0,1.14-.29,2.18-.85,3.13-.57.95-1.33,1.7-2.27,2.27-.95.57-1.99.86-3.13.86h-19.89c-1.14,0-2.18-.29-3.13-.86Z"/>
      <path class="cls-2" d="m183.37,32.4v-1.67l12.2-14.54-12.2-14.54V0h6.43l9.72,11.52,9.63-11.52h6.48v1.67l-12.24,14.54,12.24,14.49v1.71h-6.48l-9.67-11.47-9.68,11.47h-6.43Z"/>
    </g>
  </g>
</svg>