<svg xmlns="http://www.w3.org/2000/svg" viewBox="0 0 665 200"><defs><style>.a{fill:#ed2924;}</style></defs><path class="a" d="M20.84,83.69v17.86H72.65c15.61,0,20.75,4,20.75,19.62v11.42c0,15.61-5.14,19.63-20.75,19.63H21.31c-15.6,0-20.75-4-20.75-19.63V126.8H17.62v9.82H76.35v-19H24.54c-15.61,0-20.6-4-20.6-19.62V88.84c0-15.61,5-19.63,20.6-19.63H71.69c14.79,0,20.6,3.86,20.6,18.18l-.09,5.77-17,0v-9.5Z"/><path class="a" d="M189.28,69.21H128.13c-15.61,0-20.6,4-20.6,19.63v43.75c0,15.61,5,19.63,20.6,19.63h61.15c15.61,0,20.6-4,20.6-19.63V88.84c0-15.61-5-19.63-20.6-19.63m1.29,67.41H126.84V84h63.73Z"/><path class="a" d="M245.72,136.62h55V69.21h19.31v63.38c0,15.61-5,19.63-20.59,19.63H247c-15.61,0-20.6-4-20.6-19.63V69.21h19.31Z"/><path class="a" d="M398.54,120.85h10.95c12.72,0,18.67-4.51,18.67-16.09V85.3c0-11.58-6-16.09-18.67-16.09H338.37v83h19V120.85h18.34l33.48,31.37h27.68Zm-41.19-14.16V83.52H400.8c6,0,8.69,1.14,8.69,6.61v10c0,5.46-2.73,6.58-8.69,6.58Z"/><path class="a" d="M460.79,84v52.61h52.13V118.76l19.42.12-.1,13.71c0,15.61-5,19.63-20.6,19.63H462.08c-15.61,0-20.6-4-20.6-19.63V88.84c0-15.61,5-19.63,20.6-19.63h49.56c15.6,0,20.6,4,20.6,22.65v7.89l-19.32,0V84Z"/><polygon class="a" points="547.98 69.21 632.94 69.21 632.94 83.36 567.28 83.36 567.28 101.88 605.57 101.88 605.57 116.02 567.28 116.02 567.28 136.62 633.74 136.62 633.74 152.22 547.98 152.22 547.98 69.21"/><polygon class="a" points="19.57 59.31 14.12 59.31 14.12 40.97 3.34 40.97 3.34 36.96 30.41 36.96 30.41 40.97 19.57 40.97 19.57 59.31"/><polygon class="a" points="34.79 36.96 40.3 36.96 40.3 45.46 57.31 45.46 57.31 36.96 62.76 36.96 62.76 59.31 57.31 59.31 57.31 49.91 40.3 49.91 40.3 59.31 34.79 59.31 34.79 36.96"/><polygon class="a" points="68.78 36.96 92.78 36.96 92.78 40.92 74.28 40.92 74.28 45.78 85.06 45.78 85.06 49.64 74.28 49.64 74.28 55.14 93.04 55.14 93.04 59.31 68.78 59.31 68.78 36.96"/><polygon class="a" points="651.26 69.37 651.26 71.54 647.72 71.54 647.72 82.89 645.15 82.89 645.15 71.54 641.61 71.54 641.61 69.37 651.26 69.37"/><polygon class="a" points="652.45 82.89 652.45 69.39 656.09 69.39 658.68 78.81 658.72 78.81 661.34 69.39 665 69.39 665 82.89 662.76 82.89 662.76 72.27 662.72 72.27 659.7 82.89 657.73 82.89 654.74 72.27 654.7 72.27 654.7 82.89 652.45 82.89"/></svg>